#!OML:ASF H:\ManfredObstacles\Project 1\Capture day 2\Session 1\male.ASF
:FULLY-SPECIFIED
:DEGREES
614
root 0.0524133 15.8584 7.89944 -170.868 1.89571 178.654
lowerback -6.72268 0.158779 -4.81605
upperback 0.649582 0.610083 0.206573
thorax 4.4001 0.189316 2.98565
lowerneck -35.8949 -0.0382813 3.81877
upperneck 38.8477 -0.952957 0.449309
head 22.0457 0.949931 -0.439519
rclavicle 1.11164e-014 6.13748e-015
rhumerus -38.392 -22.1048 -73.9798
rradius 26.381
rwrist 34.5888
rhand -0.9786 -7.03506
rfingers 7.12502
rthumb 24.6527 -35.4672
lclavicle 1.11164e-014 6.13748e-015
lhumerus -27.7052 14.8547 82.3899
lradius 20.3489
lwrist -52.1893
lhand 3.45818 5.57378
lfingers 7.12502
lthumb 28.8983 33.355
rfemur -16.6328 6.99451 21.4917
rtibia 31.7331
rfoot -14.7868 -18.4668
rtoes -13.2546
lfemur -14.1541 -8.31704 -25.5931
ltibia 28.8551
lfoot -8.21302 21.8075
ltoes -2.19521
615
root 0.0486072 15.8506 7.88112 -170.849 1.82118 178.653
lowerback -6.6922 0.181069 -4.83766
upperback 0.618479 0.639306 0.209721
thorax 4.34765 0.205321 3.0035
lowerneck -35.8951 -0.0747986 3.80457
upperneck 38.9515 -1.00103 0.503956
head 22.1196 0.951121 -0.416678
rclavicle -4.20864e-015 3.65267e-015
rhumerus -38.5038 -22.1428 -73.861
rradius 26.4236
rwrist 34.626
rhand -0.995276 -7.00402
rfingers 7.12502
rthumb 24.6367 -35.4383
lclavicle -4.20864e-015 3.65267e-015
lhumerus -27.731 14.7196 82.4674
lradius 20.3728
lwrist -51.9703
lhand 3.44109 5.61724
lfingers 7.12502
lthumb 28.882 33.4012
rfemur -16.6827 7.01073 21.4635
rtibia 31.9742
rfoot -14.9178 -18.5622
rtoes -13.5889
lfemur -14.1424 -8.32943 -25.6087
ltibia 28.9503
lfoot -8.41201 21.7938
ltoes -2.19099
616
root 0.0447817 15.8428 7.86287 -170.83 1.75401 178.636
lowerback -6.66388 0.203268 -4.88174
upperback 0.598399 0.670724 0.209681
thorax 4.30757 0.221408 3.03097
lowerneck -35.9221 -0.112318 3.77758
upperneck 39.0567 -1.05357 0.574371
head 22.2026 0.950744 -0.384396
rclavicle -3.35449e-016 1.09829e-014
rhumerus -38.5826 -22.1921 -73.7479
rradius 26.4576
rwrist 34.6448
rhand -1.02665 -6.97771
rfingers 7.12502
rthumb 24.6067 -35.4161
lclavicle -3.35449e-016 1.09829e-014
lhumerus -27.7352 14.5833 82.5502
lradius 20.4006
lwrist -51.7595
lhand 3.44101 5.64857
lfingers 7.12502
lthumb 28.8819 33.4326
rfemur -16.7742 7.0288 21.4161
rtibia 32.2846
rfoot -15.0333 -18.6716
rtoes -13.9858
lfemur -14.1246 -8.32352 -25.6438
ltibia 29.0319
lfoot -8.60808 21.7672
ltoes -2.20546
617
root 0.0409687 15.835 7.84467 -170.813 1.69874 178.602
lowerback -6.64214 0.221197 -4.95082
upperback 0.591408 0.699078 0.209297
thorax 4.2849 0.234688 3.07198
lowerneck -35.9577 1.60794 2.55993
upperneck 39.0565 -1.97239 1.60699
head 22.267 -0.625216 -0.376166
rclavicle -6.76489e-015 -7.87684e-015
rhumerus -38.6255 -22.2196 -73.6535
rradius 26.493
rwrist 34.6435
rhand -1.06683 -6.96084
rfingers 7.12502
rthumb 24.5682 -35.4045
lclavicle -6.76489e-015 -7.87684e-015
lhumerus -27.7214 14.463 82.6327
lradius 20.4246
lwrist -51.5592
lhand 3.44742 5.66764
lfingers 7.12502
lthumb 28.888 33.4506
rfemur -16.9144 7.04371 21.3496
rtibia 32.6781
rfoot -15.1259 -18.7978
rtoes -14.4327
lfemur -14.0962 -8.29934 -25.7012
ltibia 29.0959
lfoot -8.79976 21.7322
ltoes -2.23168
618
root 0.0369832 15.8272 7.82636 -170.798 1.65577 178.553
lowerback -6.62603 0.238551 -5.03783
upperback 0.59493 0.728626 0.208475
thorax 4.27605 0.247566 3.12289
lowerneck -35.9913 1.62455 2.58879
upperneck 39.1053 -1.99221 1.63463
head 22.3127 -0.623919 -0.372703
rclavicle 6.24308e-015 9.93923e-017
rhumerus -38.6418 -22.2468 -73.563
rradius 26.5253
rwrist 34.644
rhand -1.10311 -6.93893
rfingers 7.12502
rthumb 24.5334 -35.3873
lclavicle 6.24308e-015 9.93923e-017
lhumerus -27.7 14.3527 82.7134
lradius 20.4523
lwrist -51.4164
lhand 3.47587 5.66949
lfingers 7.12502
lthumb 28.9152 33.4478
rfemur -17.1076 7.05287 21.2673
rtibia 33.1687
rfoot -15.2129 -18.9318
rtoes -14.895
lfemur -14.0553 -8.26434 -25.7782
ltibia 29.1405
lfoot -8.99056 21.6984
ltoes -2.25858
619
root 0.0329684 15.8193 7.80789 -170.788 1.62183 178.49
lowerback -6.60289 0.25336 -5.13835
upperback 0.602662 0.755848 0.201993
thorax 4.26771 0.258981 3.17519
lowerneck -36.0156 1.6585 2.68736
upperneck 39.1121 -1.98679 1.6009
head 22.3233 -0.609704 -0.405834
rclavicle -2.38542e-015 -4.07509e-015
rhumerus -38.6414 -22.2817 -73.477
rradius 26.5513
rwrist 34.6608
rhand -1.13783 -6.91734
rfingers 7.12502
rthumb 24.5001 -35.3702
lclavicle -2.38542e-015 -4.07509e-015
lhumerus -27.6863 14.2403 82.7843
lradius 20.4905
lwrist -51.2954
lhand 3.52311 5.65989
lfingers 7.12502
lthumb 28.9603 33.4305
rfemur -17.3562 7.04045 21.1702
rtibia 33.7685
rfoot -15.3034 -19.0719
rtoes -15.3842
lfemur -13.9973 -8.2217 -25.8763
ltibia 29.1676
lfoot -9.18878 21.6669
ltoes -2.25582
620
root 0.0288997 15.8111 7.78938 -170.778 1.6014 178.413
lowerback -6.56913 0.261929 -5.25105
upperback 0.603807 0.775066 0.194261
thorax 4.24706 0.266702 3.23203
lowerneck -36.0553 1.6989 2.7896
upperneck 39.1158 -1.9655 1.55568
head 22.3355 -0.590233 -0.44099
rclavicle -7.36901e-015 3.21783e-015
rhumerus -38.6435 -22.2791 -73.4037
rradius 26.5886
rwrist 34.6672
rhand -1.15284 -6.91552
rfingers 7.12502
rthumb 24.4857 -35.3703
lclavicle -7.36901e-015 3.21783e-015
lhumerus -27.698 14.1292 82.8461
lradius 20.5348
lwrist -51.1706
lhand 3.58603 5.65568
lfingers 7.12502
lthumb 29.0204 33.4159
rfemur -17.672 7.00691 21.0603
rtibia 34.487
rfoot -15.4046 -19.2153
rtoes -15.9081
lfemur -13.9281 -8.17139 -25.9923
ltibia 29.1788
lfoot -9.39196 21.6434
ltoes -2.22913
621
root 0.0248233 15.8024 7.77086 -170.773 1.5888 178.326
lowerback -6.52198 0.271097 -5.36895
upperback 0.606683 0.795106 0.178171
thorax 4.22059 0.275013 3.28296
lowerneck -36.1417 1.73485 2.88461
upperneck 39.1252 -1.94714 1.51235
head 22.365 -0.571092 -0.474413
rclavicle -7.45753e-015 -5.03174e-015
rhumerus -38.6441 -22.2896 -73.337
rradius 26.631
rwrist 34.6594
rhand -1.14671 -6.92606
rfingers 7.12502
rthumb 24.4916 -35.3801
lclavicle -7.45753e-015 -5.03174e-015
lhumerus -27.7162 14.003 82.8988
lradius 20.58
lwrist -51.0618
lhand 3.65227 5.64889
lfingers 7.12502
lthumb 29.0837 33.3982
rfemur -18.0549 6.92734 20.9418
rtibia 35.3314
rfoot -15.5078 -19.3564
rtoes -16.5317
lfemur -13.8448 -8.1216 -26.1236
ltibia 29.1764
lfoot -9.59602 21.6276
ltoes -2.16786
622
root 0.0209186 15.7937 7.75223 -170.774 1.58603 178.227
lowerback -6.45756 0.277792 -5.49462
upperback 0.605677 0.811622 0.15503
thorax 4.18062 0.282068 3.33026
lowerneck -36.2303 1.76087 2.94266
upperneck 39.1534 -1.94679 1.50799
head 22.4102 -0.559557 -0.486315
rclavicle -1.50176e-015 9.14409e-015
rhumerus -38.6574 -22.2848 -73.2837
rradius 26.6848
rwrist 34.6203
rhand -1.13788 -6.92198
rfingers 7.12502
rthumb 24.5 -35.3748
lclavicle -1.50176e-015 9.14409e-015
lhumerus -27.7575 13.8588 82.9386
lradius 20.6279
lwrist -50.9523
lhand 3.69749 5.64524
lfingers 7.12502
lthumb 29.1268 33.3871
rfemur -18.5103 6.80803 20.8163
rtibia 36.3071
rfoot -15.6033 -19.5124
rtoes -17.3102
lfemur -13.7449 -8.064 -26.2677
ltibia 29.1562
lfoot -9.79776 21.6114
ltoes -2.08842
623
root 0.0173794 15.7849 7.7335 -170.781 1.5913 178.116
lowerback -6.38108 0.28375 -5.62568
upperback 0.606693 0.827451 0.11902
thorax 4.13611 0.28906 3.3669
lowerneck -36.3124 1.77475 2.98206
upperneck 39.1853 -1.96933 1.52865
head 22.4571 -0.556078 -0.48837
rclavicle 8.60675e-015 -1.36167e-014
rhumerus -38.6759 -22.2857 -73.2511
rradius 26.749
rwrist 34.5728
rhand -1.12012 -6.93085
rfingers 7.12502
rthumb 24.5171 -35.3814
lclavicle 8.60675e-015 -1.36167e-014
lhumerus -27.7997 13.7102 82.9593
lradius 20.6661
lwrist -50.8458
lhand 3.72933 5.64952
lfingers 7.12502
lthumb 29.1573 33.3861
rfemur -19.0407 6.63807 20.6836
rtibia 37.4129
rfoot -15.6759 -19.6815
rtoes -18.2638
lfemur -13.6277 -7.99526 -26.4239
ltibia 29.1137
lfoot -9.98497 21.5857
ltoes -2.0213
624
root 0.0141557 15.7764 7.71444 -170.799 1.60067 177.982
lowerback -6.28572 0.288121 -5.77482
upperback 0.60861 0.841919 0.0709478
thorax 4.08198 0.295584 3.40071
lowerneck -36.3628 1.78524 3.00994
upperneck 39.2173 -2.00503 1.57387
head 22.4961 -0.556887 -0.479353
rclavicle -1.42255e-015 -1.44492e-014
rhumerus -38.6965 -22.2951 -73.2321
rradius 26.8127
rwrist 34.5038
rhand -1.10804 -6.95222
rfingers 7.12502
rthumb 24.5286 -35.4012
lclavicle -1.42255e-015 -1.44492e-014
lhumerus -27.8469 13.5712 82.9625
lradius 20.6906
lwrist -50.745
lhand 3.75065 5.66966
lfingers 7.12502
lthumb 29.1776 33.4027
rfemur -19.6394 6.40458 20.5332
rtibia 38.6451
rfoot -15.6981 -19.8701
rtoes -19.3395
lfemur -13.484 -7.9139 -26.603
ltibia 29.0396
lfoot -10.1574 21.5413
ltoes -1.96641
625
root 0.0114117 15.7685 7.69474 -170.835 1.61297 177.831
lowerback -6.17594 0.286307 -5.94045
upperback 0.620386 0.848759 0.0174094
thorax 4.03066 0.29786 3.43721
lowerneck -36.3883 1.80288 3.03253
upperneck 39.2556 -2.03732 1.63406
head 22.5336 -0.556511 -0.460802
rclavicle -1.03151e-014 7.90169e-015
rhumerus -38.707 -22.2994 -73.2307
rradius 26.8773
rwrist 34.4437
rhand -1.10423 -6.96854
rfingers 7.12502
rthumb 24.5323 -35.417
lclavicle -1.03151e-014 7.90169e-015
lhumerus -27.8869 13.4573 82.9508
lradius 20.688
lwrist -50.6536
lhand 3.75127 5.70299
lfingers 7.12502
lthumb 29.1782 33.436
rfemur -20.2951 6.1092 20.3731
rtibia 39.9908
rfoot -15.6442 -20.0941
rtoes -20.5119
lfemur -13.3023 -7.82006 -26.7988
ltibia 28.9283
lfoot -10.3092 21.476
ltoes -1.93202
